<svg viewBox="0 0 96 96" xmlns="http://www.w3.org/2000/svg" xmlns:xlink="http://www.w3.org/1999/xlink" id="Icons_ArrowDown" overflow="hidden"><style>
.MsftOfcThm_MainLight1_Fill_v2 {
 fill:#FFFFFF; 
}
.MsftOfcThm_MainDark1_Stroke_v2 {
 stroke:#000000; 
}
</style>
<path d="M44.981 7.05 44.981 81.809 36.081 72.914C34.9212 71.7542 33.0408 71.7542 31.881 72.914 30.7212 74.0738 30.7212 75.9542 31.881 77.114L45.881 91.1C46.9856 92.2598 48.8212 92.3046 49.981 91.2 50.0151 91.1675 50.0485 91.1341 50.081 91.1L64.071 77.112C65.2308 76.0074 65.2756 74.1718 64.171 73.012 64.1385 72.9779 64.1051 72.9445 64.071 72.912 62.9664 71.7522 61.1308 71.7074 59.971 72.812 59.9369 72.8445 59.9035 72.8779 59.871 72.912L50.976 81.807 50.976 7.05C50.976 5.39315 49.6329 4.05 47.976 4.05 46.3191 4.05 44.976 5.39315 44.976 7.05Z" class="MsftOfcThm_MainLight1_Fill_v2 MsftOfcThm_MainDark1_Stroke_v2" stroke="#000000" stroke-width="1.33333" stroke-linecap="butt" stroke-linejoin="miter" stroke-miterlimit="4" fill="#FFFFFF" fill-opacity="1"/></svg>