<?xml version="1.0" encoding="utf-8"?>
<!-- Generator: Adobe Illustrator 23.0.1, SVG Export Plug-In . SVG Version: 6.00 Build 0)  -->
<svg version="1.1" id="Layer_1" xmlns="http://www.w3.org/2000/svg" xmlns:xlink="http://www.w3.org/1999/xlink" x="0px" y="0px"
	 viewBox="0 0 1335.76 507.44" enable-background="new 0 0 1335.76 507.44" xml:space="preserve">
<g>
	<path fill="#FFFFFF" d="M251.49,199.58v-1.8c0-1.64-0.38-2.98-1.13-3.97c-0.35-0.47-1.45-1.25-4.84-1.25h-16.17
		c-1.66,0-3,0.37-3.99,1.09c-0.78,0.57-1.23,2.31-1.23,4.77v25.97h13.62c3.39,0,4.49-0.79,4.84-1.25c0.76-1,1.12-2.29,1.12-3.96
		v-1.8h5.1v19.14h-5.1v-1.8c0-1.67-0.37-2.97-1.12-3.97c-0.35-0.47-1.45-1.25-4.84-1.25h-13.62v27.99c0,2.46,0.45,4.2,1.23,4.77
		c0.99,0.72,2.33,1.09,3.99,1.09h1.8v5.1h-27.55v-5.1h1.8c1.61,0,2.88-0.36,3.89-1.09c0.78-0.57,1.23-2.31,1.23-4.77v-59.05
		c0-2.46-0.45-4.2-1.23-4.77c-1.01-0.73-2.28-1.09-3.89-1.09h-1.8v-5.1h52.98v12.12H251.49z M311.55,258.11
		c0,1.67-0.37,2.97-1.12,3.96l0,0c-0.35,0.47-1.45,1.25-4.84,1.25h-18.83c-1.66,0-3-0.37-3.99-1.09c-0.78-0.57-1.23-2.31-1.23-4.77
		v-27.99h15.22c3.39,0,4.48,0.79,4.84,1.25c0.76,1,1.12,2.3,1.12,3.96v1.8h4.99v-19.14h-4.99v1.8c0,1.67-0.37,2.97-1.13,3.96
		c-0.35,0.47-1.45,1.25-4.84,1.25h-15.22v-25.97c0-2.46,0.45-4.2,1.23-4.77c1-0.73,2.31-1.09,3.99-1.09h17.77
		c3.39,0,4.49,0.79,4.84,1.25c0.76,1,1.12,2.3,1.12,3.97v1.8h5.1v-12.12h-54.57v5.1h1.8c1.61,0,2.88,0.36,3.89,1.09
		c0.78,0.57,1.23,2.31,1.23,4.77v59.05c0,2.46-0.45,4.2-1.23,4.77c-1.01,0.73-2.28,1.09-3.89,1.09h-1.8v5.1h55.53V256.3h-4.99
		V258.11z M721.02,224.22c-0.99,1.31-3.08,1.97-6.28,1.97h-15.43v-27.77c0-3.19,0.66-5.27,1.97-6.22c1.31-0.96,3-1.44,5.05-1.44
		h16.17c3.19,0,5.28,0.66,6.28,1.97c0.99,1.31,1.49,3,1.49,5.06h1.49v-8.51H682.4v1.49c1.99,0,3.63,0.48,4.95,1.44
		c1.31,0.96,1.97,3.03,1.97,6.22v59.05c0,3.19-0.66,5.27-1.97,6.23c-1.31,0.96-2.96,1.44-4.95,1.44v1.49h23.94v-1.49
		c-2.06,0-3.74-0.48-5.05-1.44c-1.31-0.96-1.97-3.03-1.97-6.23v-29.79h15.43c3.19,0,5.28,0.66,6.28,1.97c0.99,1.31,1.49,3,1.49,5.05
		H724v-15.53h-1.49C722.51,221.22,722.02,222.91,721.02,224.22z M380.44,232.78c-3.62-3.62-8.85-7.23-15.69-10.85
		c-6.85-3.62-11.08-6.06-12.71-7.34c-1.92-1.49-3.34-3.09-4.26-4.79c-0.92-1.7-1.38-3.69-1.38-5.96c0-2.48,0.51-4.84,1.54-7.08
		c1.03-2.23,2.61-4.06,4.74-5.48c2.13-1.42,4.72-2.13,7.77-2.13c5.32,0,9.72,1.6,13.19,4.79c3.47,3.19,5.57,7.84,6.28,13.94h3.09
		v-17.77h-1.49c0,0.85-0.2,1.67-0.59,2.45c-0.39,0.78-1.05,1.17-1.97,1.17c-0.71,0-1.99-0.6-3.83-1.81
		c-1.85-1.21-3.85-2.22-6.01-3.03c-2.16-0.82-5.05-1.22-8.67-1.22c-4.04,0-7.82,0.96-11.33,2.87c-3.51,1.92-6.31,4.43-8.41,7.55
		c-2.09,3.12-3.14,6.46-3.14,10c0,7.73,3.37,13.58,10.11,17.56c8.23,4.75,14.03,8.25,17.4,10.48c3.37,2.24,5.87,4.51,7.5,6.81
		c1.63,2.31,2.45,5.05,2.45,8.25c0,4.47-1.26,8.14-3.78,11.01c-2.52,2.87-5.66,4.31-9.42,4.31c-3.48,0-6.88-0.92-10.21-2.77
		c-3.33-1.84-6.22-4.56-8.67-8.14c-2.45-3.58-4.03-7.93-4.73-13.03h-3.51v24.05h1.49c0-1.35,0.28-2.77,0.85-4.26
		c0.57-1.49,1.56-2.23,2.98-2.23c0.99,0,2.77,0.81,5.32,2.45c2.55,1.63,5.02,2.96,7.39,3.99c2.38,1.03,5.41,1.54,9.1,1.54
		c8.44,0,14.56-2.04,18.35-6.12c3.79-4.08,5.69-9.2,5.69-15.38C385.87,241.01,384.06,236.4,380.44,232.78z M165.83,256.3h-5.1v1.8
		c0,1.67-0.37,2.96-1.13,3.96c-0.35,0.47-1.45,1.25-4.84,1.25h-16.71c-1.66,0-3-0.37-3.99-1.09c-0.78-0.57-1.23-2.31-1.23-4.77
		v-59.05c0-2.46,0.45-4.2,1.23-4.77c0.99-0.72,2.33-1.09,3.99-1.09h1.8v-5.1h-27.55v5.1h1.8c1.61,0,2.88,0.36,3.89,1.09
		c0.78,0.57,1.23,2.31,1.23,4.77v59.05c0,2.46-0.45,4.2-1.23,4.77c-1.01,0.73-2.28,1.09-3.89,1.09h-1.8v5.1h53.51V256.3z
		 M415.29,263.69c-1.31,0.96-3,1.44-5.05,1.44v1.49h23.94v-1.49c-1.99,0-3.65-0.48-5-1.44c-1.35-0.96-2.02-3.03-2.02-6.23v-59.05
		c0-3.12,0.64-5.18,1.92-6.17c1.28-0.99,2.98-1.49,5.11-1.49h9.58c3.19,0,5.27,0.66,6.22,1.97c0.96,1.31,1.44,3,1.44,5.06h1.49
		v-8.51h-60.86v8.51h1.49c0-2.06,0.48-3.74,1.44-5.06c0.96-1.31,3.03-1.97,6.23-1.97h9.04c2.13,0,3.83,0.5,5.11,1.49
		c1.28,0.99,1.92,3.05,1.92,6.17v59.05C417.25,260.66,416.6,262.73,415.29,263.69z M454.28,257.79c-1.06,2.98-1.1,4.95-0.11,5.9
		c0.99,0.96,2.94,1.44,5.85,1.44v1.49h-16.49v-1.49c1.49-0.07,2.62-0.23,3.41-0.48c0.78-0.25,1.56-0.89,2.34-1.92
		c0.78-1.03,1.56-2.64,2.34-4.84l25.22-69.16h1.92L504.72,258c1.13,2.98,2.46,4.91,3.99,5.8c1.53,0.89,3.25,1.33,5.16,1.33v1.49
		h-26.28v-1.49c2.06,0,3.88-0.57,5.48-1.7c1.6-1.13,1.9-3.12,0.91-5.96l-6.4-18.09h-26.47L454.28,257.79z M461.62,237.89h25.41
		l-12.43-35.11h-0.43L461.62,237.89z M650.49,258.11h-1.38c0,2.06-0.5,3.74-1.49,5.05c-0.99,1.31-3.09,1.97-6.28,1.97H622.5
		c-2.06,0-3.74-0.48-5.05-1.44c-1.31-0.96-1.97-3.03-1.97-6.23v-29.79h17.02c3.19,0,5.28,0.66,6.28,1.97c0.99,1.31,1.49,3,1.49,5.05
		h1.38v-15.53h-1.38c0,2.06-0.5,3.74-1.49,5.05c-0.99,1.31-3.09,1.97-6.28,1.97h-17.02v-27.77c0-3.19,0.65-5.27,1.97-6.22
		c1.31-0.96,3-1.44,5.05-1.44h17.77c3.19,0,5.28,0.66,6.28,1.97c0.99,1.31,1.49,3,1.49,5.06h1.49v-8.51h-50.97v1.49
		c1.98,0,3.63,0.48,4.95,1.44c1.31,0.96,1.97,3.03,1.97,6.22v59.05c0,3.19-0.66,5.27-1.97,6.23c-1.31,0.96-2.96,1.44-4.95,1.44v1.49
		h51.92V258.11z M553.02,231.93c5.18,0,9.17,0.43,11.97,1.28c2.8,0.85,4.75,2.2,5.85,4.04c1.1,1.85,1.65,4.4,1.65,7.66
		c0,6.53-1.63,11.77-4.89,15.75c-3.26,3.97-7.77,5.96-13.51,5.96c-5.53,0-10.34-1.93-14.42-5.8c-4.08-3.87-7.18-8.83-9.31-14.9
		c-2.13-6.06-3.19-12.29-3.19-18.67c0-6.17,1.05-12.2,3.14-18.09c2.09-5.89,5.18-10.69,9.26-14.42c4.08-3.73,8.96-5.59,14.63-5.59
		c4.47,0,8.6,1.03,12.39,3.09c3.79,2.06,6.9,4.89,9.31,8.51c2.41,3.62,3.83,7.73,4.26,12.34h2.98v-20.43h-1.38
		c0,1.7-0.6,2.91-1.81,3.62c-1.21,0.71-3.4-0.21-6.6-2.77c-2.55-1.84-5.55-3.28-8.99-4.31c-3.44-1.03-6.83-1.54-10.16-1.54
		c-7.95,0-14.93,1.81-20.96,5.43c-6.03,3.62-10.66,8.48-13.89,14.58c-3.23,6.1-4.84,12.8-4.84,20.11c0,7.24,1.58,13.94,4.73,20.11
		c3.16,6.17,7.64,11.08,13.46,14.74c5.82,3.65,12.52,5.48,20.11,5.48c5.75,0,11.07-1.06,15.96-3.19c4.89-2.13,8.85-5.34,11.86-9.63
		c3.02-4.29,4.52-9.49,4.52-15.59c0-3.19,0.67-5.28,2.02-6.28c1.35-0.99,3.05-1.49,5.11-1.49v-1.38h-39.26V231.93z M1221.95,258.11
		c0,2.06-0.5,3.74-1.49,5.05c-1,1.31-3.09,1.97-6.28,1.97h-16.7c-2.06,0-3.74-0.48-5.05-1.44c-1.31-0.96-1.97-3.03-1.97-6.23v-59.05
		c0-3.19,0.66-5.27,1.97-6.22c1.31-0.96,2.99-1.44,5.05-1.44v-1.49h-23.94v1.49c1.99,0,3.63,0.48,4.95,1.44
		c1.31,0.96,1.97,3.03,1.97,6.22v59.05c0,3.19-0.66,5.27-1.97,6.23c-1.31,0.96-2.96,1.44-4.95,1.44v1.49h49.9v-8.51H1221.95z
		 M1115.76,266.62h-16.49v-1.49c1.49-0.07,2.62-0.23,3.4-0.48c0.78-0.24,1.56-0.89,2.34-1.91c0.78-1.03,1.56-2.64,2.34-4.84
		l25.21-69.16h1.92l25.96,69.26c1.14,2.98,2.46,4.91,3.99,5.79c1.53,0.89,3.24,1.33,5.17,1.33v1.49h-26.28v-1.49
		c2.05,0,3.88-0.56,5.48-1.71c1.6-1.13,1.9-3.11,0.9-5.95l-6.4-18.1h-26.47l-6.81,18.41c-1.06,2.98-1.09,4.95-0.11,5.91
		c1,0.95,2.94,1.43,5.85,1.43V266.62z M1117.36,237.89h25.42l-12.44-35.11h-0.42L1117.36,237.89z M761.78,265.13
		c-2.06,0-3.74-0.48-5.05-1.44c-1.31-0.96-1.97-3.03-1.97-6.23v-59.05c0-3.19,0.66-5.27,1.97-6.22c1.31-0.96,3-1.44,5.05-1.44v-1.49
		h-23.94v1.49c1.98,0,3.63,0.48,4.95,1.44c1.31,0.96,1.97,3.03,1.97,6.22v59.05c0,3.19-0.66,5.27-1.97,6.23
		c-1.31,0.96-2.96,1.44-4.95,1.44v1.49h23.94V265.13z M966.91,190.76c2.06,0,3.74,0.48,5.05,1.44c1.31,0.96,1.97,3.03,1.97,6.22
		v52.77h-0.32l-43.84-61.93H915.1v1.38c1.99,0,3.63,0.5,4.95,1.49c1.31,1,1.97,3.09,1.97,6.28v59.05c0,3.19-0.66,5.27-1.97,6.23
		c-1.31,0.96-2.96,1.44-4.95,1.44v1.49h16.49v-1.49c-2.06,0-3.74-0.48-5.05-1.44c-1.31-0.96-1.97-3.03-1.97-6.23v-58.2h0.21
		l49.26,68.41h2.34v-69.27c0-3.19,0.66-5.27,1.97-6.22c1.31-0.96,3-1.44,5.05-1.44v-1.49h-16.49V190.76z M1058.74,262.89
		c0.43,1.35,0.64,2.59,0.64,3.72h1.49v-24.05h-4.04c-0.5,5.18-1.97,9.58-4.41,13.19c-2.45,3.62-5.44,6.33-8.99,8.14
		c-3.55,1.81-7.23,2.71-11.07,2.71c-5.75,0-10.69-1.93-14.84-5.8c-4.15-3.87-7.29-8.83-9.42-14.9c-2.13-6.06-3.19-12.29-3.19-18.67
		c0-6.24,1.05-12.29,3.14-18.14c2.09-5.85,5.25-10.64,9.47-14.36c4.22-3.73,9.35-5.59,15.38-5.59c4.04,0.28,7.87,1.37,11.49,3.25
		c3.62,1.88,6.65,4.57,9.1,8.09c2.45,3.51,3.92,7.71,4.42,12.61h2.98v-20.43h-1.49c0,1.63-0.6,2.78-1.81,3.46
		c-1.21,0.68-3.41-0.19-6.6-2.61c-4.75-3.4-10.78-5.36-18.09-5.85c-8.3,0-15.52,1.81-21.65,5.43c-6.14,3.62-10.84,8.48-14.1,14.58
		c-3.26,6.1-4.89,12.8-4.89,20.11s1.58,14.03,4.73,20.16c3.16,6.14,7.68,11.03,13.57,14.68c5.89,3.65,12.73,5.48,20.53,5.48
		c3.76,0,7.34-0.52,10.75-1.54c3.4-1.03,6.45-2.5,9.15-4.41c2.27-1.77,4.02-2.43,5.27-1.97
		C1057.48,260.64,1058.31,261.55,1058.74,262.89z M851.58,257.79c-1.06,2.98-1.09,4.95-0.11,5.91c1,0.95,2.94,1.43,5.85,1.43v1.49
		h-16.49v-1.49c1.49-0.07,2.62-0.23,3.4-0.48c0.78-0.24,1.56-0.89,2.34-1.91c0.78-1.03,1.56-2.64,2.34-4.84l25.21-69.16h1.92
		L902.01,258c1.13,2.98,2.46,4.91,3.99,5.79c1.53,0.89,3.24,1.33,5.17,1.33v1.49h-26.29v-1.49c2.07,0,3.89-0.56,5.49-1.71
		c1.59-1.13,1.89-3.11,0.9-5.95l-6.4-18.1h-26.47L851.58,257.79z M858.92,237.89h25.41l-12.44-35.11h-0.42L858.92,237.89z
		 M199.19,263.32h-1.8c-1.66,0-3-0.37-3.99-1.09c-0.78-0.57-1.23-2.31-1.23-4.77v-59.05c0-2.46,0.45-4.2,1.23-4.77
		c1-0.73,2.31-1.09,3.99-1.09h1.8v-5.1h-27.55v5.1h1.8c1.61,0,2.88,0.36,3.89,1.09c0.78,0.57,1.23,2.31,1.23,4.77v59.05
		c0,2.46-0.45,4.2-1.23,4.77c-1.01,0.73-2.28,1.09-3.89,1.09h-1.8v5.1h27.55V263.32z M1096.82,265.13c-2.06,0-3.74-0.48-5.05-1.44
		c-1.31-0.96-1.97-3.03-1.97-6.23v-59.05c0-3.19,0.66-5.27,1.97-6.22c1.31-0.96,3-1.44,5.05-1.44v-1.49h-23.94v1.49
		c1.99,0,3.64,0.48,4.95,1.44c1.31,0.96,1.97,3.03,1.97,6.22v59.05c0,3.19-0.66,5.27-1.97,6.23c-1.31,0.96-2.96,1.44-4.95,1.44v1.49
		h23.94V265.13z M822.32,190.76c2.06,0,3.74,0.48,5.05,1.44c1.31,0.96,1.97,3.03,1.97,6.22v52.77h-0.32l-43.84-61.93H770.5v1.38
		c1.98,0,3.63,0.5,4.95,1.49c1.31,1,1.97,3.09,1.97,6.28v59.05c0,3.19-0.66,5.27-1.97,6.23c-1.31,0.96-2.96,1.44-4.95,1.44v1.49
		h16.49v-1.49c-2.06,0-3.74-0.48-5.05-1.44c-1.31-0.96-1.97-3.03-1.97-6.23v-58.2h0.21l49.26,68.41h2.34v-69.27
		c0-3.19,0.65-5.27,1.97-6.22c1.31-0.96,3-1.44,5.05-1.44v-1.49h-16.49V190.76z M138.63,289.34c0.71,0,1.28,0.08,1.72,0.24
		c0.25,0.09,0.47,0.26,0.63,0.49c0.17,0.23,0.25,0.48,0.25,0.75c0,0.56-0.26,1.55-0.77,2.99l-4.49,13l-4.52-12.82
		c-0.52-1.47-0.78-2.51-0.78-3.1c0-0.48,0.15-0.85,0.45-1.13c0.3-0.28,0.78-0.42,1.43-0.42h0.63v-0.64h-9.19v0.64
		c0.47,0,0.82,0.04,1.04,0.11c0.29,0.09,0.58,0.24,0.87,0.45c0.22,0.15,0.41,0.34,0.56,0.56c0.3,0.44,0.57,0.95,0.82,1.53l0.56,1.58
		l0.7,1.98l-3.91,11.26l-4.65-13.24c-0.51-1.46-0.77-2.39-0.77-2.8c0-0.39,0.16-0.73,0.49-1.01c0.32-0.28,0.79-0.42,1.41-0.42h0.42
		v-0.64h-8.73v0.64c0.68,0,1.23,0.11,1.63,0.32c0.4,0.21,0.72,0.54,0.95,0.98c0.14,0.27,0.47,1.13,0.99,2.59l7.01,19.59h0.63
		l5.34-15.08l5.38,15.08h0.7l6.58-19.02c0.5-1.53,0.86-2.5,1.1-2.9c0.35-0.6,0.71-1.02,1.1-1.24c0.38-0.22,0.88-0.33,1.5-0.33v-0.64
		h-7.05V289.34z M174.68,309.63c-0.56,0.55-1.14,0.91-1.74,1.1c-0.6,0.19-1.57,0.28-2.9,0.28h-4c-0.65,0-1.09-0.07-1.32-0.2
		c-0.23-0.13-0.39-0.31-0.49-0.54c-0.09-0.23-0.14-0.86-0.14-1.91v-7.78h5.18c0.99,0,1.72,0.12,2.19,0.35
		c0.48,0.23,0.82,0.55,1.03,0.96c0.16,0.32,0.32,1.06,0.49,2.21h0.64v-8.21h-0.64c-0.07,1.35-0.41,2.29-1.01,2.82
		c-0.45,0.41-1.35,0.61-2.7,0.61h-5.18v-9.33h6.47c1.17,0,1.99,0.09,2.45,0.26c0.58,0.24,1.02,0.6,1.31,1.06
		c0.3,0.46,0.57,1.32,0.81,2.56h0.68l-0.26-5.17h-18.18v0.64h0.84c0.97,0,1.67,0.23,2.09,0.7c0.3,0.35,0.45,1.27,0.45,2.77v15.33
		c0,1.15-0.07,1.91-0.2,2.28c-0.13,0.37-0.39,0.65-0.76,0.84c-0.5,0.27-1.03,0.4-1.58,0.4h-0.84v0.64h18.18l2.04-5.92h-0.7
		C176.14,307.82,175.4,308.91,174.68,309.63z M212.17,310.85c0.54,0.47,1.29,0.73,2.25,0.79v0.64h-9.31v-0.64
		c0.94-0.05,1.58-0.2,1.91-0.47c0.33-0.27,0.5-0.59,0.5-0.97c0-0.51-0.23-1.32-0.7-2.42l-1.43-3.39h-9.13l-1.6,3.72
		c-0.39,0.92-0.59,1.6-0.59,2.05c0,0.36,0.17,0.68,0.51,0.95c0.34,0.27,1.08,0.45,2.22,0.53v0.64h-7.43v-0.64
		c0.99-0.18,1.62-0.4,1.91-0.68c0.59-0.56,1.25-1.69,1.97-3.39l8.3-19.42h0.61l8.21,19.63
		C211.03,309.36,211.63,310.38,212.17,310.85z M204.91,303.1l-4-9.53l-4.11,9.53H204.91z M244.13,308.97c-0.6,0.68-1.27,1.15-2,1.42
		c-0.73,0.27-2,0.4-3.81,0.4h-1.72c-1.52,0-2.42-0.06-2.71-0.17c-0.29-0.12-0.5-0.3-0.64-0.54c-0.19-0.36-0.28-1.02-0.28-1.98
		v-14.82c0-1.4,0.09-2.29,0.28-2.66c0.19-0.37,0.53-0.68,1.04-0.92c0.5-0.24,1.38-0.36,2.64-0.35v-0.64h-10.68v0.64h0.89
		c0.89,0,1.57,0.26,2.02,0.77c0.32,0.37,0.49,1.29,0.49,2.77v15.22c0,1.35-0.12,2.2-0.36,2.57c-0.43,0.65-1.14,0.97-2.14,0.97h-0.89
		v0.64h18.27l2.02-6.4l-0.57-0.12C245.34,307.22,244.74,308.29,244.13,308.97z M256.06,288.7l-0.28,5.53h0.66
		c0.08-1.07,0.34-1.91,0.77-2.54c0.43-0.63,0.94-1.05,1.55-1.27c0.46-0.16,1.25-0.24,2.35-0.24h2.84v18.02
		c0,1.32-0.13,2.17-0.38,2.54c-0.42,0.6-1.13,0.9-2.12,0.9h-0.84v0.64h10v-0.64h-0.82c-0.92,0-1.6-0.24-2.04-0.73
		c-0.31-0.36-0.47-1.26-0.47-2.71v-18.02h3.32c0.97,0,1.76,0.16,2.36,0.48c0.6,0.32,1.08,0.82,1.44,1.49
		c0.22,0.42,0.39,1.11,0.52,2.09h0.66l-0.26-5.53H256.06z M302.07,289.34h0.84c0.56,0,1.09,0.14,1.58,0.42
		c0.37,0.21,0.61,0.46,0.73,0.75c0.15,0.38,0.23,1.18,0.23,2.38v6.75h-10.96v-6.75c0-1.16,0.07-1.93,0.21-2.31
		c0.14-0.38,0.39-0.66,0.75-0.84c0.5-0.27,1.03-0.4,1.58-0.4h0.85v-0.64h-10.11v0.64h0.84c0.56,0,1.09,0.14,1.6,0.42
		c0.36,0.21,0.6,0.46,0.71,0.75c0.15,0.38,0.23,1.18,0.23,2.38v15.22c0,1.42-0.14,2.31-0.42,2.68c-0.44,0.57-1.15,0.85-2.12,0.85
		h-0.84v0.64h10.11v-0.64h-0.85c-0.56,0-1.09-0.14-1.58-0.42c-0.37-0.21-0.61-0.46-0.73-0.75c-0.15-0.38-0.23-1.17-0.23-2.37v-7.18
		h10.96v7.18c0,1.42-0.15,2.31-0.44,2.68c-0.44,0.57-1.14,0.85-2.11,0.85h-0.84v0.64h10.09v-0.64h-0.84c-0.56,0-1.09-0.14-1.6-0.42
		c-0.36-0.21-0.6-0.46-0.71-0.75c-0.15-0.38-0.23-1.17-0.23-2.37v-15.22c0-1.16,0.07-1.93,0.2-2.31c0.13-0.38,0.39-0.66,0.76-0.84
		c0.5-0.27,1.03-0.4,1.58-0.4h0.84v-0.64h-10.09V289.34z M345.98,319.98h1.44v-32.43h-1.44V319.98z M381.17,288.7v0.64H382
		c0.57,0,1.1,0.14,1.6,0.42c0.36,0.21,0.6,0.46,0.71,0.75c0.15,0.38,0.23,1.17,0.23,2.37v15.24c0,1.42-0.14,2.31-0.42,2.68
		c-0.44,0.57-1.15,0.85-2.12,0.85h-0.84v0.64h10.13v-0.64h-0.85c-0.56,0-1.09-0.14-1.6-0.42c-0.37-0.21-0.61-0.46-0.73-0.75
		c-0.15-0.38-0.23-1.17-0.23-2.37v-7.41h4.3c0.79,0,1.38,0.11,1.78,0.32c0.4,0.22,0.71,0.54,0.94,0.97c0.23,0.43,0.34,1.1,0.36,2.02
		h0.64v-7.99h-0.64c-0.15,1.29-0.46,2.15-0.91,2.58c-0.46,0.43-1.18,0.65-2.17,0.65h-4.3v-9.27h5.2c1.23,0,2.14,0.12,2.72,0.35
		c0.59,0.23,1.08,0.61,1.48,1.12c0.4,0.52,0.75,1.33,1.05,2.43h0.61l-0.23-5.18H381.17z M411.99,289.34h0.84
		c0.56,0,1.09,0.14,1.6,0.42c0.36,0.21,0.6,0.46,0.71,0.75c0.15,0.38,0.23,1.17,0.23,2.37v15.24c0,1.42-0.14,2.31-0.42,2.68
		c-0.44,0.57-1.15,0.85-2.12,0.85h-0.84v0.64h10.11v-0.64h-0.85c-0.56,0-1.09-0.14-1.58-0.42c-0.37-0.21-0.61-0.46-0.73-0.75
		c-0.15-0.38-0.23-1.17-0.23-2.37v-15.24c0-1.42,0.15-2.31,0.44-2.68c0.44-0.57,1.14-0.85,2.11-0.85h0.85v-0.64h-10.11V289.34z
		 M450.67,289.34h0.82c0.93,0,1.61,0.24,2.04,0.73c0.32,0.36,0.49,1.26,0.49,2.71v13.6l-14.42-17.69h-6.4v0.64
		c0.68,0,1.19,0.05,1.53,0.16c0.68,0.22,1.2,0.46,1.56,0.71c0.35,0.26,0.87,0.78,1.56,1.58v16.41c0,1.32-0.13,2.17-0.38,2.54
		c-0.42,0.6-1.13,0.9-2.14,0.9h-0.82v0.64h8.21v-0.64h-0.84c-0.92,0-1.6-0.24-2.04-0.73c-0.31-0.36-0.47-1.26-0.47-2.71v-14.53
		l15.55,19h0.63v-19.89c0-1.32,0.13-2.17,0.38-2.54c0.42-0.6,1.13-0.9,2.12-0.9h0.84v-0.64h-8.21V289.34z M493.16,310.85
		c0.54,0.47,1.29,0.73,2.25,0.79v0.64h-9.31v-0.64c0.94-0.05,1.58-0.2,1.91-0.47c0.33-0.27,0.5-0.59,0.5-0.97
		c0-0.51-0.23-1.32-0.7-2.42l-1.43-3.39h-9.13l-1.6,3.72c-0.39,0.92-0.59,1.6-0.59,2.05c0,0.36,0.17,0.68,0.51,0.95
		c0.34,0.27,1.08,0.45,2.22,0.53v0.64h-7.43v-0.64c0.99-0.18,1.62-0.4,1.91-0.68c0.59-0.56,1.25-1.69,1.97-3.39l8.3-19.42h0.61
		l8.21,19.63C492.02,309.36,492.62,310.38,493.16,310.85z M485.89,303.1l-4-9.53l-4.11,9.53H485.89z M523.51,289.34h0.82
		c0.93,0,1.61,0.24,2.04,0.73c0.32,0.36,0.49,1.26,0.49,2.71v13.6l-14.42-17.69h-6.4v0.64c0.68,0,1.19,0.05,1.53,0.16
		c0.68,0.22,1.2,0.46,1.56,0.71c0.35,0.26,0.87,0.78,1.56,1.58v16.41c0,1.32-0.13,2.17-0.38,2.54c-0.42,0.6-1.13,0.9-2.14,0.9h-0.82
		v0.64h8.21v-0.64h-0.84c-0.92,0-1.6-0.24-2.04-0.73c-0.31-0.36-0.47-1.26-0.47-2.71v-14.53l15.55,19h0.63v-19.89
		c0-1.32,0.13-2.17,0.38-2.54c0.42-0.6,1.13-0.9,2.12-0.9h0.84v-0.64h-8.21V289.34z M561.05,310.31c-1.17,0.66-2.52,0.98-4.05,0.98
		c-1.76,0-3.33-0.42-4.71-1.25c-1.37-0.84-2.4-2.04-3.09-3.6c-0.68-1.57-1.03-3.42-1.03-5.55c0-2.59,0.36-4.75,1.09-6.49
		c0.73-1.74,1.72-3.01,2.98-3.8c1.26-0.8,2.68-1.19,4.25-1.19c1.87,0,3.47,0.53,4.8,1.58c1.33,1.06,2.36,2.78,3.08,5.18h0.54
		l-0.54-8.02h-0.61c-0.13,0.56-0.34,0.99-0.64,1.31c-0.23,0.22-0.5,0.33-0.82,0.33c-0.21,0-0.56-0.13-1.04-0.38
		c-1.66-0.84-3.34-1.25-5.05-1.25c-2.19,0-4.21,0.54-6.06,1.63c-1.85,1.09-3.3,2.61-4.36,4.58c-1.06,1.97-1.58,4.14-1.58,6.49
		c0,2.92,0.8,5.46,2.4,7.62c2.15,2.9,5.17,4.35,9.08,4.35c2.17,0,4.04-0.49,5.62-1.46c1.58-0.97,2.96-2.51,4.14-4.61l-0.54-0.35
		C563.51,308.36,562.22,309.66,561.05,310.31z M578.26,289.34h0.84c0.56,0,1.09,0.14,1.6,0.42c0.36,0.21,0.6,0.46,0.71,0.75
		c0.15,0.38,0.23,1.17,0.23,2.37v15.24c0,1.42-0.14,2.31-0.42,2.68c-0.44,0.57-1.15,0.85-2.12,0.85h-0.84v0.64h10.11v-0.64h-0.85
		c-0.56,0-1.09-0.14-1.58-0.42c-0.37-0.21-0.61-0.46-0.73-0.75c-0.15-0.38-0.23-1.17-0.23-2.37v-15.24c0-1.42,0.15-2.31,0.44-2.68
		c0.44-0.57,1.14-0.85,2.11-0.85h0.85v-0.64h-10.11V289.34z M623.01,310.85c0.54,0.47,1.29,0.73,2.25,0.79v0.64h-9.31v-0.64
		c0.94-0.05,1.58-0.2,1.91-0.47c0.33-0.27,0.5-0.59,0.5-0.97c0-0.51-0.23-1.32-0.7-2.42l-1.43-3.39h-9.13l-1.6,3.72
		c-0.39,0.92-0.59,1.6-0.59,2.05c0,0.36,0.17,0.68,0.51,0.95c0.34,0.27,1.08,0.45,2.22,0.53v0.64h-7.43v-0.64
		c0.99-0.18,1.62-0.4,1.91-0.68c0.59-0.56,1.25-1.69,1.97-3.39l8.3-19.42H613l8.21,19.63C621.87,309.36,622.47,310.38,623.01,310.85
		z M615.75,303.1l-4-9.53l-4.11,9.53H615.75z M654.97,308.97c-0.6,0.68-1.27,1.15-2,1.42c-0.73,0.27-2,0.4-3.81,0.4h-1.72
		c-1.52,0-2.42-0.06-2.71-0.17c-0.29-0.12-0.5-0.3-0.64-0.54c-0.19-0.36-0.28-1.02-0.28-1.98v-14.82c0-1.4,0.09-2.29,0.28-2.66
		c0.19-0.37,0.53-0.68,1.04-0.92c0.5-0.24,1.38-0.36,2.64-0.35v-0.64h-10.68v0.64h0.89c0.89,0,1.57,0.26,2.02,0.77
		c0.32,0.37,0.49,1.29,0.49,2.77v15.22c0,1.35-0.12,2.2-0.36,2.57c-0.43,0.65-1.14,0.97-2.14,0.97h-0.89v0.64h18.27l2.02-6.4
		l-0.57-0.12C656.18,307.22,655.57,308.29,654.97,308.97z M689.88,319.98h1.44v-32.43h-1.44V319.98z M745.45,310.67
		c0.8,0.51,1.84,0.84,3.13,0.97v0.64h-6.3l-7.99-11.03c-0.59,0.02-1.07,0.03-1.44,0.03c-0.15,0-0.31,0-0.49-0.01
		c-0.17-0.01-0.35-0.01-0.54-0.03v6.85c0,1.48,0.16,2.41,0.49,2.77c0.44,0.51,1.1,0.77,1.98,0.77h0.92v0.64h-10.11v-0.64H726
		c1,0,1.71-0.32,2.14-0.97c0.24-0.36,0.37-1.21,0.37-2.56v-15.24c0-1.48-0.16-2.41-0.49-2.77c-0.45-0.51-1.13-0.77-2.02-0.77h-0.89
		v-0.64h8.59c2.51,0,4.35,0.18,5.54,0.55c1.19,0.36,2.2,1.04,3.03,2.02c0.83,0.98,1.24,2.15,1.24,3.5c0,1.45-0.47,2.71-1.42,3.78
		c-0.95,1.07-2.41,1.82-4.39,2.26l4.87,6.77C743.7,309.13,744.65,310.16,745.45,310.67z M737.89,298.72
		c1.14-0.97,1.71-2.22,1.71-3.72c0-1.47-0.46-2.67-1.38-3.59c-0.92-0.92-2.14-1.38-3.66-1.38c-0.67,0-1.58,0.11-2.73,0.33v9.81
		c0.22,0,0.41,0,0.57,0.01c0.16,0.01,0.3,0.01,0.4,0.01C735.05,300.18,736.75,299.69,737.89,298.72z M759.85,289.34h0.84
		c0.56,0,1.09,0.14,1.6,0.42c0.36,0.21,0.6,0.46,0.71,0.75c0.15,0.38,0.23,1.17,0.23,2.37v15.24c0,1.42-0.14,2.31-0.42,2.68
		c-0.44,0.57-1.15,0.85-2.12,0.85h-0.84v0.64h10.11v-0.64h-0.85c-0.56,0-1.09-0.14-1.58-0.42c-0.37-0.21-0.61-0.46-0.73-0.75
		c-0.15-0.38-0.23-1.17-0.23-2.37v-15.24c0-1.42,0.15-2.31,0.44-2.68c0.44-0.57,1.14-0.85,2.11-0.85h0.85v-0.64h-10.11V289.34z
		 M796.9,301.33c-0.81-0.63-2.31-1.54-4.52-2.72c-2.7-1.45-4.41-2.61-5.13-3.48c-0.5-0.59-0.75-1.25-0.75-1.97
		c0-0.94,0.39-1.78,1.18-2.51c0.79-0.74,1.79-1.11,2.99-1.11c1.07,0,2.1,0.27,3.1,0.82c1,0.55,1.77,1.28,2.31,2.21
		c0.54,0.93,0.91,2.17,1.12,3.74h0.64v-8.16h-0.64c-0.12,0.55-0.27,0.91-0.46,1.09c-0.19,0.18-0.44,0.27-0.74,0.27
		c-0.27,0-0.72-0.15-1.37-0.44c-1.4-0.61-2.73-0.92-3.98-0.92c-2.01,0-3.66,0.61-4.96,1.84c-1.3,1.22-1.95,2.68-1.95,4.38
		c0,0.97,0.22,1.87,0.66,2.68c0.44,0.81,1.09,1.55,1.94,2.23c0.85,0.67,2.29,1.57,4.31,2.71c2.02,1.13,3.25,1.87,3.71,2.22
		c0.67,0.51,1.17,1.06,1.49,1.65c0.32,0.59,0.48,1.18,0.48,1.76c0,1.04-0.42,1.95-1.26,2.71c-0.84,0.77-1.99,1.15-3.44,1.15
		c-1.25,0-2.4-0.28-3.45-0.84c-1.05-0.56-1.83-1.25-2.34-2.1c-0.51-0.84-0.92-2.11-1.22-3.8h-0.64v8.09h0.64
		c0.08-0.55,0.21-0.9,0.37-1.08c0.17-0.17,0.4-0.26,0.69-0.26c0.3,0,1.02,0.18,2.15,0.55c1.13,0.36,1.88,0.58,2.24,0.63
		c0.6,0.1,1.25,0.16,1.93,0.16c2.18,0,3.96-0.65,5.35-1.94c1.39-1.29,2.08-2.83,2.08-4.62c0-0.94-0.22-1.84-0.65-2.7
		C798.33,302.71,797.71,301.97,796.9,301.33z M831.37,307.85l-8.7-8.65l3.6-3.58c2.1-2.15,3.28-3.33,3.53-3.57
		c0.88-0.81,1.62-1.4,2.23-1.77c0.6-0.37,1.11-0.61,1.53-0.74c0.42-0.13,0.88-0.2,1.39-0.21v-0.64h-8.66v0.64h0.54
		c0.58,0,0.99,0.1,1.23,0.3c0.24,0.2,0.37,0.44,0.37,0.71c0,0.35-0.16,0.75-0.47,1.22c-0.72,1.06-2.8,3.16-6.25,6.32
		c-1.36,1.25-2.15,1.99-2.38,2.21v-7.22c0-1.16,0.07-1.93,0.21-2.3c0.14-0.37,0.39-0.65,0.75-0.84c0.51-0.27,1.04-0.4,1.58-0.4h0.8
		v-0.64h-10.06v0.64h0.84c0.56,0,1.09,0.14,1.6,0.42c0.36,0.21,0.6,0.45,0.71,0.73c0.15,0.39,0.23,1.19,0.23,2.38v15.24
		c0,1.42-0.14,2.31-0.42,2.68c-0.44,0.57-1.15,0.85-2.12,0.85h-0.84v0.64h10.06v-0.64h-0.8c-0.56,0-1.09-0.14-1.58-0.42
		c-0.37-0.21-0.62-0.46-0.73-0.75c-0.15-0.38-0.23-1.17-0.23-2.37v-7.6l8.14,8.05c0.61,0.6,0.98,1.02,1.09,1.23
		c0.11,0.22,0.17,0.47,0.17,0.75s-0.15,0.53-0.44,0.76c-0.3,0.23-0.78,0.34-1.45,0.34v0.64h11.22v-0.64
		c-1.01-0.07-2.02-0.36-3.03-0.88C834.01,310.25,832.79,309.28,831.37,307.85z M883.87,307.15l-8.56-18.46h-6.68v0.64
		c0.96,0,1.66,0.11,2.1,0.34c0.44,0.23,0.73,0.51,0.9,0.84c0.23,0.47,0.35,1.22,0.35,2.26v15.41c0,1.32-0.13,2.17-0.38,2.54
		c-0.42,0.6-1.13,0.9-2.12,0.9h-0.84v0.64h8.21v-0.64h-0.84c-0.93,0-1.61-0.24-2.04-0.73c-0.31-0.36-0.47-1.26-0.47-2.71v-15.76
		l9.12,19.85h0.57l9.1-19.85v15.76c0,1.32-0.13,2.17-0.38,2.54c-0.41,0.6-1.11,0.9-2.12,0.9h-0.84v0.64h10.02v-0.64h-0.82
		c-0.93,0-1.61-0.24-2.04-0.73c-0.32-0.36-0.49-1.26-0.49-2.71v-15.41c0-1.32,0.13-2.17,0.38-2.54c0.42-0.6,1.13-0.9,2.14-0.9h0.82
		v-0.64h-6.68L883.87,307.15z M933.49,310.85c0.54,0.47,1.29,0.73,2.25,0.79v0.64h-9.31v-0.64c0.94-0.05,1.58-0.2,1.91-0.47
		c0.33-0.27,0.5-0.59,0.5-0.97c0-0.51-0.23-1.32-0.7-2.42l-1.43-3.39h-9.13l-1.6,3.72c-0.39,0.92-0.59,1.6-0.59,2.05
		c0,0.36,0.17,0.68,0.51,0.95c0.34,0.27,1.08,0.45,2.22,0.53v0.64h-7.43v-0.64c0.99-0.18,1.62-0.4,1.91-0.68
		c0.59-0.56,1.25-1.69,1.97-3.39l8.3-19.42h0.61l8.21,19.63C932.35,309.36,932.95,310.38,933.49,310.85z M926.23,303.1l-4-9.53
		l-4.11,9.53H926.23z M963.85,289.34h0.82c0.93,0,1.61,0.24,2.04,0.73c0.32,0.36,0.49,1.26,0.49,2.71v13.6l-14.42-17.69h-6.4v0.64
		c0.68,0,1.19,0.05,1.53,0.16c0.68,0.22,1.2,0.46,1.56,0.71c0.35,0.26,0.87,0.78,1.56,1.58v16.41c0,1.32-0.13,2.17-0.38,2.54
		c-0.42,0.6-1.13,0.9-2.14,0.9h-0.82v0.64h8.21v-0.64h-0.84c-0.92,0-1.6-0.24-2.04-0.73c-0.31-0.36-0.47-1.26-0.47-2.71v-14.53
		l15.55,19h0.63v-19.89c0-1.32,0.13-2.17,0.38-2.54c0.42-0.6,1.13-0.9,2.12-0.9h0.84v-0.64h-8.21V289.34z M1006.33,310.85
		c0.54,0.47,1.29,0.73,2.25,0.79v0.64h-9.31v-0.64c0.94-0.05,1.58-0.2,1.91-0.47c0.33-0.27,0.5-0.59,0.5-0.97
		c0-0.51-0.23-1.32-0.7-2.42l-1.43-3.39h-9.13l-1.6,3.72c-0.39,0.92-0.59,1.6-0.59,2.05c0,0.36,0.17,0.68,0.51,0.95
		c0.34,0.27,1.08,0.45,2.22,0.53v0.64h-7.43v-0.64c0.99-0.18,1.62-0.4,1.91-0.68c0.59-0.56,1.25-1.69,1.97-3.39l8.3-19.42h0.61
		l8.21,19.63C1005.19,309.36,1005.8,310.38,1006.33,310.85z M999.07,303.1l-4-9.53l-4.11,9.53H999.07z M1035.77,300.07
		c0.95,0,1.62,0.1,1.99,0.29c0.38,0.19,0.65,0.47,0.84,0.84c0.18,0.37,0.27,1.14,0.27,2.32v6.82c-0.76,0.43-1.54,0.75-2.35,0.97
		c-0.81,0.22-1.65,0.33-2.52,0.33c-1.49,0-2.93-0.43-4.34-1.3c-1.41-0.86-2.55-2.22-3.42-4.08c-0.87-1.86-1.3-3.91-1.3-6.16
		c0-2.77,0.65-5.16,1.97-7.17c1.56-2.38,3.85-3.57,6.85-3.57c2.2,0,4.01,0.68,5.41,2.04c0.97,0.94,1.77,2.34,2.38,4.19h0.61
		l-0.61-7.45h-0.64c-0.03,0.59-0.13,0.99-0.29,1.19c-0.16,0.2-0.35,0.3-0.57,0.3c-0.22,0-0.66-0.12-1.31-0.37
		c-1.29-0.48-2.28-0.78-2.98-0.92c-0.7-0.14-1.48-0.21-2.34-0.21c-2.35,0-4.4,0.51-6.12,1.51c-2.06,1.22-3.69,2.96-4.87,5.22
		c-1,1.9-1.5,3.89-1.5,5.97c0,2.86,0.89,5.39,2.66,7.59c2.37,2.92,5.83,4.38,10.39,4.38c1.59,0,3.03-0.17,4.33-0.51
		c1.3-0.34,2.61-0.86,3.95-1.58v-7.22c0-1.26,0.12-2.11,0.35-2.54c0.34-0.6,0.96-0.9,1.86-0.9h0.44v-0.66h-9.13V300.07z
		 M1074.14,309.63c-0.56,0.55-1.14,0.91-1.74,1.1s-1.57,0.28-2.91,0.28h-4c-0.65,0-1.09-0.07-1.32-0.2
		c-0.23-0.13-0.39-0.31-0.49-0.54c-0.09-0.23-0.14-0.86-0.14-1.91v-7.78h5.18c0.99,0,1.72,0.12,2.19,0.35
		c0.48,0.23,0.82,0.55,1.03,0.96c0.16,0.32,0.32,1.06,0.49,2.21h0.64v-8.21h-0.64c-0.07,1.35-0.41,2.29-1.01,2.82
		c-0.45,0.41-1.35,0.61-2.7,0.61h-5.18v-9.33h6.47c1.17,0,1.99,0.09,2.45,0.26c0.58,0.24,1.02,0.6,1.31,1.06
		c0.3,0.46,0.57,1.32,0.81,2.56h0.68l-0.26-5.17h-18.18v0.64h0.84c0.97,0,1.67,0.23,2.09,0.7c0.3,0.35,0.45,1.27,0.45,2.77v15.33
		c0,1.15-0.07,1.91-0.2,2.28c-0.13,0.37-0.39,0.65-0.76,0.84c-0.5,0.27-1.03,0.4-1.58,0.4h-0.84v0.64h18.18l2.04-5.92h-0.7
		C1075.6,307.82,1074.86,308.91,1074.14,309.63z M1104.39,307.15l-8.56-18.46h-6.68v0.64c0.96,0,1.66,0.11,2.1,0.34
		c0.44,0.23,0.73,0.51,0.9,0.84c0.23,0.47,0.35,1.22,0.35,2.26v15.41c0,1.32-0.13,2.17-0.38,2.54c-0.42,0.6-1.13,0.9-2.12,0.9h-0.84
		v0.64h8.21v-0.64h-0.84c-0.93,0-1.61-0.24-2.04-0.73c-0.31-0.36-0.47-1.26-0.47-2.71v-15.76l9.12,19.85h0.57l9.1-19.85v15.76
		c0,1.32-0.13,2.17-0.38,2.54c-0.41,0.6-1.11,0.9-2.12,0.9h-0.84v0.64h10.02v-0.64h-0.82c-0.93,0-1.61-0.24-2.04-0.73
		c-0.32-0.36-0.49-1.26-0.49-2.71v-15.41c0-1.32,0.13-2.17,0.38-2.54c0.42-0.6,1.13-0.9,2.14-0.9h0.82v-0.64h-6.68L1104.39,307.15z
		 M1148.97,309.63c-0.56,0.55-1.14,0.91-1.74,1.1s-1.57,0.28-2.91,0.28h-4c-0.65,0-1.09-0.07-1.32-0.2
		c-0.23-0.13-0.39-0.31-0.49-0.54c-0.09-0.23-0.14-0.86-0.14-1.91v-7.78h5.18c0.99,0,1.72,0.12,2.19,0.35
		c0.48,0.23,0.82,0.55,1.03,0.96c0.16,0.32,0.32,1.06,0.49,2.21h0.64v-8.21h-0.64c-0.07,1.35-0.41,2.29-1.01,2.82
		c-0.45,0.41-1.35,0.61-2.7,0.61h-5.18v-9.33h6.47c1.17,0,1.99,0.09,2.45,0.26c0.58,0.24,1.02,0.6,1.31,1.06
		c0.3,0.46,0.57,1.32,0.81,2.56h0.68l-0.26-5.17h-18.18v0.64h0.84c0.97,0,1.67,0.23,2.09,0.7c0.3,0.35,0.45,1.27,0.45,2.77v15.33
		c0,1.15-0.07,1.91-0.2,2.28c-0.13,0.37-0.39,0.65-0.76,0.84c-0.5,0.27-1.03,0.4-1.58,0.4h-0.84v0.64h18.18l2.04-5.92h-0.7
		C1150.42,307.82,1149.69,308.91,1148.97,309.63z M1180.4,289.34h0.82c0.93,0,1.61,0.24,2.04,0.73c0.32,0.36,0.49,1.26,0.49,2.71
		v13.6l-14.42-17.69h-6.4v0.64c0.68,0,1.19,0.05,1.53,0.16c0.68,0.22,1.2,0.46,1.56,0.71c0.35,0.26,0.87,0.78,1.56,1.58v16.41
		c0,1.32-0.13,2.17-0.38,2.54c-0.42,0.6-1.13,0.9-2.14,0.9h-0.82v0.64h8.21v-0.64h-0.84c-0.92,0-1.6-0.24-2.04-0.73
		c-0.31-0.36-0.47-1.26-0.47-2.71v-14.53l15.55,19h0.63v-19.89c0-1.32,0.13-2.17,0.38-2.54c0.42-0.6,1.13-0.9,2.12-0.9h0.84v-0.64
		h-8.21V289.34z M1201.16,288.7l-0.28,5.53h0.66c0.08-1.07,0.34-1.91,0.77-2.54c0.43-0.63,0.94-1.05,1.55-1.27
		c0.46-0.16,1.25-0.24,2.35-0.24h2.84v18.02c0,1.32-0.13,2.17-0.38,2.54c-0.42,0.6-1.13,0.9-2.12,0.9h-0.84v0.64h10v-0.64h-0.82
		c-0.92,0-1.6-0.24-2.04-0.73c-0.31-0.36-0.47-1.26-0.47-2.71v-18.02h3.32c0.97,0,1.76,0.16,2.36,0.48c0.6,0.32,1.08,0.82,1.44,1.49
		c0.22,0.42,0.39,1.11,0.52,2.09h0.66l-0.26-5.53H1201.16z"/>
</g>
</svg>
