<?xml version="1.0" encoding="UTF-8"?>
<svg version="1.1" xmlns="http://www.w3.org/2000/svg" width="258" height="39">
<path d="M0 0 C11.22 0 22.44 0 34 0 C34 1.32 34 2.64 34 4 C31.36 3.67 28.72 3.34 26 3 C26 4.98 26 6.96 26 9 C27.32 9 28.64 9 30 9 C30 8.34 30 7.68 30 7 C30.66 7 31.32 7 32 7 C32 8.98 32 10.96 32 13 C30.02 12.34 28.04 11.68 26 11 C26 13.31 26 15.62 26 18 C28.64 17.34 31.28 16.68 34 16 C34 17.32 34 18.64 34 20 C29.38 20 24.76 20 20 20 C20 19.34 20 18.68 20 18 C20.66 18 21.32 18 22 18 C22 13.05 22 8.1 22 3 C20.68 3.33 19.36 3.66 18 4 C15.25 3.5625 15.25 3.5625 13 3 C13 4.98 13 6.96 13 9 C13.99 9 14.98 9 16 9 C16 8.34 16 7.68 16 7 C16.66 7 17.32 7 18 7 C18 8.98 18 10.96 18 13 C17.34 13 16.68 13 16 13 C16 12.34 16 11.68 16 11 C15.01 11 14.02 11 13 11 C13.33 13.97 13.66 16.94 14 20 C9.38 20 4.76 20 0 20 C0 13.4 0 6.8 0 0 Z M5 3 C5 7.95 5 12.9 5 18 C6.32 18 7.64 18 9 18 C9 13.05 9 8.1 9 3 C7.68 3 6.36 3 5 3 Z " fill="#FFFFFF" transform="translate(15,4)"/>
<path d="M0 0 C2.31 0 4.62 0 7 0 C7 0.99 7 1.98 7 3 C6.34 3 5.68 3 5 3 C5 7.95 5 12.9 5 18 C5.99 18 6.98 18 8 18 C8.12632812 17.30390625 8.25265625 16.6078125 8.3828125 15.890625 C9.04841955 12.7732249 9.90975027 9.78791774 10.875 6.75 C11.36613281 5.16445312 11.36613281 5.16445312 11.8671875 3.546875 C12.24101562 2.70640625 12.61484375 1.8659375 13 1 C13.99 0.67 14.98 0.34 16 0 C16.64894237 2.06152389 17.2940264 4.12426258 17.9375 6.1875 C18.29714844 7.33605469 18.65679687 8.48460937 19.02734375 9.66796875 C19.83756036 12.44353006 20.49134307 15.15687548 21 18 C22.32 18 23.64 18 25 18 C25 13.05 25 8.1 25 3 C24.34 3 23.68 3 23 3 C23 2.01 23 1.02 23 0 C25.31 0 27.62 0 30 0 C30 0.99 30 1.98 30 3 C29.34 3 28.68 3 28 3 C28 7.95 28 12.9 28 18 C31.96 17.505 31.96 17.505 36 17 C36 17.99 36 18.98 36 20 C29.4 20 22.8 20 16 20 C16.33 18.02 16.66 16.04 17 14 C15.02 14.33 13.04 14.66 11 15 C11 16.65 11 18.3 11 20 C7.37 20 3.74 20 0 20 C0 19.34 0 18.68 0 18 C0.66 18 1.32 18 2 18 C2 13.05 2 8.1 2 3 C1.34 3 0.68 3 0 3 C0 2.01 0 1.02 0 0 Z M13 7 C12.67 8.65 12.34 10.3 12 12 C13.32 11.67 14.64 11.34 16 11 C15.01 9.68 14.02 8.36 13 7 Z " fill="#FFFFFF" transform="translate(221,4)"/>
<path d="M0 0 C0.66 0 1.32 0 2 0 C3.00399524 2.62353518 4.00334445 5.24867795 5 7.875 C5.28617188 8.62136719 5.57234375 9.36773437 5.8671875 10.13671875 C8 15.7734375 8 15.7734375 8 18 C8.99 18 9.98 18 11 18 C10.67 12.06 10.34 6.12 10 0 C15 1 15 1 17.01953125 3.50390625 C17.61121094 4.51324219 18.20289063 5.52257812 18.8125 6.5625 C19.41707031 7.57441406 20.02164063 8.58632812 20.64453125 9.62890625 C21.09183594 10.41136719 21.53914063 11.19382812 22 12 C22 8.04 22 4.08 22 0 C23.65 0 25.3 0 27 0 C26.67 0.99 26.34 1.98 26 3 C25.85596652 4.33363703 25.75409577 5.67218046 25.68359375 7.01171875 C25.62075195 8.14770508 25.62075195 8.14770508 25.55664062 9.30664062 C25.51732422 10.09232422 25.47800781 10.87800781 25.4375 11.6875 C25.37272461 12.88342773 25.37272461 12.88342773 25.30664062 14.10351562 C25.20072632 16.06881447 25.09987449 18.03438496 25 20 C24.34 20 23.68 20 23 20 C21.37322909 17.86229382 19.86020356 15.7324466 18.375 13.5 C17.74464844 12.56994141 17.74464844 12.56994141 17.1015625 11.62109375 C16.06162833 10.08482736 15.03002944 8.54292476 14 7 C13.67 10.63 13.34 14.26 13 18 C13.66 18 14.32 18 15 18 C15 18.66 15 19.32 15 20 C11.04 20 7.08 20 3 20 C3.33 18.02 3.66 16.04 4 14 C2.02 14.33 0.04 14.66 -2 15 C-2 16.65 -2 18.3 -2 20 C-3.65 20 -5.3 20 -7 20 C-7 19.34 -7 18.68 -7 18 C-6.34 18 -5.68 18 -5 18 C-4.89042969 17.45472656 -4.78085938 16.90945312 -4.66796875 16.34765625 C-3.48990063 10.74464935 -1.912965 5.3945613 0 0 Z M0 7 C-0.33 8.65 -0.66 10.3 -1 12 C-0.01 12 0.98 12 2 12 C1.67 10.35 1.34 8.7 1 7 C0.67 7 0.34 7 0 7 Z " fill="#FFFFFF" transform="translate(175,4)"/>
<path d="M0 0 C6.6 0 13.2 0 20 0 C20 0.99 20 1.98 20 3 C19.34 3 18.68 3 18 3 C18 7.95 18 12.9 18 18 C18.66 18 19.32 18 20 18 C20 18.66 20 19.32 20 20 C17.69 20 15.38 20 13 20 C13 19.34 13 18.68 13 18 C13.66 18 14.32 18 15 18 C14.67 13.05 14.34 8.1 14 3 C13.01 3.495 13.01 3.495 12 4 C10.00039988 4.039992 7.99952758 4.04346799 6 4 C6 5.32 6 6.64 6 8 C7.65 8 9.3 8 11 8 C11 9.65 11 11.3 11 13 C9.35 12.67 7.7 12.34 6 12 C5.91773332 15.04386724 6.02391783 17.07175348 7 20 C4.69 20 2.38 20 0 20 C0 19.34 0 18.68 0 18 C0.66 18 1.32 18 2 18 C1.8590651 15.56212615 1.71245458 13.12482147 1.5625 10.6875 C1.52318359 9.99720703 1.48386719 9.30691406 1.44335938 8.59570312 C1.25072585 5.52838465 0.97677283 2.93031848 0 0 Z " fill="#FFFFFF" transform="translate(131,4)"/>
<path d="M0 0 C2.93268273 0.48878046 4.8948552 0.97520733 7.375 2.5625 C7.375 4.5425 7.375 6.5225 7.375 8.5625 C6.715 8.5625 6.055 8.5625 5.375 8.5625 C3.75 6.0625 3.75 6.0625 2.375 3.5625 C0.395 3.8925 -1.585 4.2225 -3.625 4.5625 C-4.80164871 8.09244613 -4.82350603 10.85705413 -4.625 14.5625 C-2.91607501 17.87710705 -2.91607501 17.87710705 0.5 18.25 C1.44875 18.353125 2.3975 18.45625 3.375 18.5625 C3.045 16.9125 2.715 15.2625 2.375 13.5625 C1.385 13.2325 0.395 12.9025 -0.625 12.5625 C-0.625 11.9025 -0.625 11.2425 -0.625 10.5625 C2.675 10.5625 5.975 10.5625 9.375 10.5625 C9.375 11.2225 9.375 11.8825 9.375 12.5625 C8.715 12.5625 8.055 12.5625 7.375 12.5625 C7.49875 13.7071875 7.49875 13.7071875 7.625 14.875 C7.375 17.5625 7.375 17.5625 5.625 19.3125 C2.33197709 21.14195717 0.60039121 21.8688478 -3.125 20.9375 C-6.28831691 19.1976757 -7.76399663 17.66417229 -9.625 14.5625 C-10.28480937 10.99952939 -10.29061945 8.76908225 -8.51953125 5.55859375 C-5.85735026 2.02567259 -4.47590449 0.6945369 0 0 Z " fill="#FFFFFF" transform="translate(102.625,3.4375)"/>
<path d="M0 0 C1.32 0 2.64 0 4 0 C6.140625 2.625 6.140625 2.625 8.25 6 C8.95640625 7.11375 9.6628125 8.2275 10.390625 9.375 C11.18726563 10.674375 11.18726563 10.674375 12 12 C12 8.04 12 4.08 12 0 C13.65 0 15.3 0 17 0 C16.67 0.99 16.34 1.98 16 3 C15.85596652 4.33363703 15.75409577 5.67218046 15.68359375 7.01171875 C15.64169922 7.76904297 15.59980469 8.52636719 15.55664062 9.30664062 C15.51732422 10.09232422 15.47800781 10.87800781 15.4375 11.6875 C15.39431641 12.48478516 15.35113281 13.28207031 15.30664062 14.10351562 C15.20072632 16.06881447 15.09987449 18.03438496 15 20 C10.91711311 18.6390377 10.11314183 16.52046678 7.8125 12.9375 C7.09707031 11.83277344 6.38164062 10.72804688 5.64453125 9.58984375 C5.10183594 8.73519531 4.55914062 7.88054688 4 7 C3.67 10.63 3.34 14.26 3 18 C3.66 18 4.32 18 5 18 C5 18.66 5 19.32 5 20 C3.35 20 1.7 20 0 20 C0 13.4 0 6.8 0 0 Z " fill="#FFFFFF" transform="translate(152,4)"/>
<path d="M0 0 C3.21743924 0.18562149 5.35756683 0.82635498 8.25 2.1875 C8.25 4.1675 8.25 6.1475 8.25 8.1875 C7.26 7.8575 6.27 7.5275 5.25 7.1875 C4.92 6.1975 4.59 5.2075 4.25 4.1875 C1.34926819 3.50948966 1.34926819 3.50948966 -1.75 3.1875 C-3.97713126 4.99230016 -3.97713126 4.99230016 -3.98046875 7.5 C-3.96628906 8.386875 -3.95210937 9.27375 -3.9375 10.1875 C-3.93105469 11.074375 -3.92460937 11.96125 -3.91796875 12.875 C-3.89581927 15.21356345 -3.89581927 15.21356345 -2.75 17.1875 C-0.44 17.1875 1.87 17.1875 4.25 17.1875 C4.58 15.8675 4.91 14.5475 5.25 13.1875 C5.91 13.1875 6.57 13.1875 7.25 13.1875 C7.58 15.4975 7.91 17.8075 8.25 20.1875 C2.37514042 21.27108521 -1.57102482 21.7243611 -6.75 18.1875 C-9.41539031 14.18941454 -9.59149704 10.88998347 -8.75 6.1875 C-6.3125 3.1875 -6.3125 3.1875 -3.75 1.1875 C-2.75 0.1875 -2.75 0.1875 0 0 Z " fill="#FFFFFF" transform="translate(211.75,3.8125)"/>
<path d="M0 0 C4.29 0 8.58 0 13 0 C12.67 1.32 12.34 2.64 12 4 C9.69 3.67 7.38 3.34 5 3 C5 4.98 5 6.96 5 9 C8.465 8.505 8.465 8.505 12 8 C12 9.65 12 11.3 12 13 C9.69 12.34 7.38 11.68 5 11 C5 13.31 5 15.62 5 18 C7.97 17.67 10.94 17.34 14 17 C13.67 17.99 13.34 18.98 13 20 C8.71 20 4.42 20 0 20 C0 19.34 0 18.68 0 18 C0.66 18 1.32 18 2 18 C2 13.05 2 8.1 2 3 C1.34 3 0.68 3 0 3 C0 2.01 0 1.02 0 0 Z " fill="#FFFFFF" transform="translate(112,4)"/>
<path d="M0 0 C0.99 0.33 1.98 0.66 3 1 C3 2.65 3 4.3 3 6 C2.34 6 1.68 6 1 6 C1 5.01 1 4.02 1 3 C-0.65 3 -2.3 3 -4 3 C-4.33 4.32 -4.66 5.64 -5 7 C-4.2575 7.2475 -3.515 7.495 -2.75 7.75 C0.30198066 9.13726393 1.9994481 10.30694937 4 13 C4.0625 15.5625 4.0625 15.5625 3 18 C0.875 19.875 0.875 19.875 -2 21 C-5.8125 20.6875 -5.8125 20.6875 -9 20 C-9 17.69 -9 15.38 -9 13 C-8.34 13 -7.68 13 -7 13 C-6.773125 13.639375 -6.54625 14.27875 -6.3125 14.9375 C-5.14749104 17.27193661 -5.14749104 17.27193661 -2.375 17.75 C-1.59125 17.8325 -0.8075 17.915 0 18 C-1.04309839 14.24484579 -1.72813859 13.16855407 -5.125 11.0625 C-8 9 -8 9 -8.5625 5.9375 C-8 3 -8 3 -6.8125 1.125 C-4.38958759 -0.37887667 -2.80853738 -0.28085374 0 0 Z " fill="#FFFFFF" transform="translate(61,4)"/>
<path d="M0 0 C0.66 0 1.32 0 2 0 C2.40992187 1.21558594 2.81984375 2.43117188 3.2421875 3.68359375 C3.78607235 5.26836169 4.33036426 6.85298997 4.875 8.4375 C5.14441406 9.23994141 5.41382812 10.04238281 5.69140625 10.86914062 C5.95566406 11.63291016 6.21992187 12.39667969 6.4921875 13.18359375 C6.73308105 13.89056396 6.97397461 14.59753418 7.22216797 15.32592773 C7.88185759 17.20038805 7.88185759 17.20038805 10 18 C10 18.66 10 19.32 10 20 C7.69 20 5.38 20 3 20 C3.33 18.02 3.66 16.04 4 14 C2.02 14.33 0.04 14.66 -2 15 C-2 15.99 -2 16.98 -2 18 C-2 18.66 -2 19.32 -2 20 C-3.65 20 -5.3 20 -7 20 C-7 19.34 -7 18.68 -7 18 C-6.34 18 -5.68 18 -5 18 C-4.81630859 16.71222656 -4.81630859 16.71222656 -4.62890625 15.3984375 C-3.99872884 11.99313102 -3.06437721 8.89657899 -1.9375 5.625 C-1.57527344 4.56539062 -1.21304688 3.50578125 -0.83984375 2.4140625 C-0.56269531 1.61742187 -0.28554687 0.82078125 0 0 Z M0 6 C-0.33 7.98 -0.66 9.96 -1 12 C-0.01 12 0.98 12 2 12 C1.67 10.02 1.34 8.04 1 6 C0.67 6 0.34 6 0 6 Z " fill="#FFFFFF" transform="translate(84,4)"/>
<path d="M0 0 C2.31 0 4.62 0 7 0 C6.67 5.94 6.34 11.88 6 18 C9.465 17.505 9.465 17.505 13 17 C13 17.99 13 18.98 13 20 C8.71 20 4.42 20 0 20 C0 19.34 0 18.68 0 18 C0.66 18 1.32 18 2 18 C2 13.05 2 8.1 2 3 C1.34 3 0.68 3 0 3 C0 2.01 0 1.02 0 0 Z " fill="#FFFFFF" transform="translate(1,4)"/>
<path d="M0 0 C4.95 0 9.9 0 15 0 C14.67 1.32 14.34 2.64 14 4 C12.35 3.67 10.7 3.34 9 3 C9 7.95 9 12.9 9 18 C9.66 18 10.32 18 11 18 C11 18.66 11 19.32 11 20 C8.69 20 6.38 20 4 20 C4 19.34 4 18.68 4 18 C4.66 18 5.32 18 6 18 C6 13.05 6 8.1 6 3 C4.02 3.33 2.04 3.66 0 4 C0 2.68 0 1.36 0 0 Z " fill="#FFFFFF" transform="translate(65,4)"/>
<path d="M0 0 C1.98 0.99 1.98 0.99 4 2 C4.33 1.34 4.66 0.68 5 0 C5.99 0 6.98 0 8 0 C8 2.31 8 4.62 8 7 C5.36 7 2.72 7 0 7 C0 4.69 0 2.38 0 0 Z " fill="#FFFFFF" transform="translate(225,28)"/>
<path d="M0 0 C0.99 0 1.98 0 3 0 C3.33 0.66 3.66 1.32 4 2 C5.32 1.34 6.64 0.68 8 0 C8 2.31 8 4.62 8 7 C5.36 7 2.72 7 0 7 C0 4.69 0 2.38 0 0 Z " fill="#FFFFFF" transform="translate(174,28)"/>
<path d="M0 0 C2.31 0 4.62 0 7 0 C7 2.31 7 4.62 7 7 C4.69 7 2.38 7 0 7 C0 4.69 0 2.38 0 0 Z " fill="#FFFFFF" transform="translate(41,28)"/>
<path d="M0 0 C2.97 0 5.94 0 9 0 C8.34 2.31 7.68 4.62 7 7 C5.35 6.67 3.7 6.34 2 6 C1.34 4.02 0.68 2.04 0 0 Z " fill="#FFFFFF" transform="translate(1,28)"/>
<path d="M0 0 C2.31 0 4.62 0 7 0 C7 2.31 7 4.62 7 7 C4.66666667 7 2.33333333 7 0 7 C0 4.69 0 2.38 0 0 Z " fill="#FFFFFF" transform="translate(192,28)"/>
<path d="M0 0 C2.31 0 4.62 0 7 0 C7 2.31 7 4.62 7 7 C4.66666667 7 2.33333333 7 0 7 C0 4.69 0 2.38 0 0 Z M4 1 C5 3 5 3 5 3 Z " fill="#FFFFFF" transform="translate(91,28)"/>
<path d="M0 0 C0.598125 0.185625 1.19625 0.37125 1.8125 0.5625 C4.16408762 1.22093687 4.16408762 1.22093687 7 0 C7 2.31 7 4.62 7 7 C5 7 3 7 1 7 C0.67 4.69 0.34 2.38 0 0 Z " fill="#FFFFFF" transform="translate(74,28)"/>
<path d="M0 0 C2.33333333 0 4.66666667 0 7 0 C6.67 2.31 6.34 4.62 6 7 C4 7 2 7 0 7 C0 4.69 0 2.38 0 0 Z " fill="#FFFFFF" transform="translate(242,28)"/>
<path d="M0 0 C2.31 0 4.62 0 7 0 C6.01 1.485 6.01 1.485 5 3 C5.66 4.32 6.32 5.64 7 7 C4.66666667 7 2.33333333 7 0 7 C0 4.69 0 2.38 0 0 Z " fill="#FFFFFF" transform="translate(161,28)"/>
<path d="M0 0 C1.65 0 3.3 0 5 0 C5.33 0.99 5.66 1.98 6 3 C5.67 3.66 5.34 4.32 5 5 C5.66 5 6.32 5 7 5 C7 5.66 7 6.32 7 7 C4.66666667 7 2.33333333 7 0 7 C0 4.69 0 2.38 0 0 Z " fill="#FFFFFF" transform="translate(141,28)"/>
<path d="M0 0 C1.65 0 3.3 0 5 0 C6.125 4.75 6.125 4.75 5 7 C3.35 7 1.7 7 0 7 C0 4.69 0 2.38 0 0 Z " fill="#FFFFFF" transform="translate(235,28)"/>
<path d="M0 0 C0.625 1.8125 0.625 1.8125 1 4 C0.01 5.485 0.01 5.485 -1 7 C-2.32 6.67 -3.64 6.34 -5 6 C-5.33 4.35 -5.66 2.7 -6 1 C-4 0 -4 0 0 0 Z M-4 2 C-3.67 2.66 -3.34 3.32 -3 4 C-2.67 3.34 -2.34 2.68 -2 2 C-2.66 2 -3.32 2 -4 2 Z " fill="#FFFFFF" transform="translate(215,28)"/>
<path d="M0 0 C1.98 0 3.96 0 6 0 C6.04254356 1.99954746 6.04080783 4.00041636 6 6 C5 7 5 7 2.4375 7.0625 C1.2309375 7.0315625 1.2309375 7.0315625 0 7 C0 4.69 0 2.38 0 0 Z " fill="#FFFFFF" transform="translate(11,28)"/>
<path d="M0 0 C1.98 0 3.96 0 6 0 C6 1.98 6 3.96 6 6 C4.35 6.33 2.7 6.66 1 7 C0.67 4.69 0.34 2.38 0 0 Z " fill="#FFFFFF" transform="translate(217,28)"/>
<path d="M0 0 C1.2065625 0.0309375 1.2065625 0.0309375 2.4375 0.0625 C2.1075 1.0525 1.7775 2.0425 1.4375 3.0625 C0.4475 2.7325 -0.5425 2.4025 -1.5625 2.0625 C-1.5625 3.0525 -1.5625 4.0425 -1.5625 5.0625 C-0.2425 4.7325 1.0775 4.4025 2.4375 4.0625 C2.1075 5.0525 1.7775 6.0425 1.4375 7.0625 C-0.2125 6.7325 -1.8625 6.4025 -3.5625 6.0625 C-3.605221 4.39638095 -3.60313832 2.72867115 -3.5625 1.0625 C-2.5625 0.0625 -2.5625 0.0625 0 0 Z " fill="#FFFFFF" transform="translate(103.5625,27.9375)"/>
<path d="M0 0 C0.99 0.33 1.98 0.66 3 1 C4.1875 4.0625 4.1875 4.0625 5 7 C4.01 7 3.02 7 2 7 C1.67 6.67 1.34 6.34 1 6 C0.01 6.33 -0.98 6.66 -2 7 C-1.34 4.69 -0.68 2.38 0 0 Z " fill="#FFFFFF" transform="translate(85,28)"/>
<path d="M0 0 C0.66 0 1.32 0 2 0 C5 4.38461538 5 4.38461538 5 7 C4.01 7 3.02 7 2 7 C1.67 6.67 1.34 6.34 1 6 C0.01 6.33 -0.98 6.66 -2 7 C-1.34 4.69 -0.68 2.38 0 0 Z " fill="#FFFFFF" transform="translate(186,28)"/>
<path d="M0 0 C1.32 0 2.64 0 4 0 C4.33 1.98 4.66 3.96 5 6 C3.35 6.33 1.7 6.66 0 7 C0 4.66666667 0 2.33333333 0 0 Z " fill="#FFFFFF" transform="translate(155,28)"/>
<path d="M0 0 C0.66 0 1.32 0 2 0 C5 4.38461538 5 4.38461538 5 7 C4.01 7 3.02 7 2 7 C2 6.34 2 5.68 2 5 C1.34 5 0.68 5 0 5 C0 5.66 0 6.32 0 7 C-0.66 7 -1.32 7 -2 7 C-1.125 2.25 -1.125 2.25 0 0 Z " fill="#FFFFFF" transform="translate(115,28)"/>
<path d="M0 0 C1.98 0 3.96 0 6 0 C5.34 2.31 4.68 4.62 4 7 C3.01 7 2.02 7 1 7 C0.67 4.69 0.34 2.38 0 0 Z " fill="#FFFFFF" transform="translate(62,28)"/>
<path d="M0 0 C1.4540625 0.0309375 1.4540625 0.0309375 2.9375 0.0625 C2.9375 0.7225 2.9375 1.3825 2.9375 2.0625 C2.2775 2.0625 1.6175 2.0625 0.9375 2.0625 C0.9375 3.7125 0.9375 5.3625 0.9375 7.0625 C-0.0525 7.0625 -1.0425 7.0625 -2.0625 7.0625 C-2.0625 5.7425 -2.0625 4.4225 -2.0625 3.0625 C-2.7225 2.4025 -3.3825 1.7425 -4.0625 1.0625 C-3.0625 0.0625 -3.0625 0.0625 0 0 Z " fill="#FFFFFF" transform="translate(37.0625,27.9375)"/>
<path d="M0 0 C1.32 0 2.64 0 4 0 C4 1.32 4 2.64 4 4 C4.66 4 5.32 4 6 4 C5.67 4.99 5.34 5.98 5 7 C3.35 7 1.7 7 0 7 C0 4.69 0 2.38 0 0 Z " fill="#FFFFFF" transform="translate(27,28)"/>
<path d="M0 0 C0.66 0 1.32 0 2 0 C3.4606285 2.64738916 4 3.89448334 4 7 C3.01 6.67 2.02 6.34 1 6 C0.67 6.33 0.34 6.66 0 7 C-0.66 7 -1.32 7 -2 7 C-1.125 2.25 -1.125 2.25 0 0 Z " fill="#FFFFFF" transform="translate(21,28)"/>
<path d="M0 0 C2.31 0 4.62 0 7 0 C7 0.66 7 1.32 7 2 C6.01 2 5.02 2 4 2 C4.33 3.65 4.66 5.3 5 7 C4.01 7 3.02 7 2 7 C2 5.35 2 3.7 2 2 C1.34 2 0.68 2 0 2 C0 1.34 0 0.68 0 0 Z " fill="#FFFFFF" transform="translate(250,28)"/>
<path d="M0 0 C0.66 0 1.32 0 2 0 C2.66 2.31 3.32 4.62 4 7 C3.01 6.67 2.02 6.34 1 6 C0.67 6.33 0.34 6.66 0 7 C-0.66 7 -1.32 7 -2 7 C-1.125 2.25 -1.125 2.25 0 0 Z " fill="#FFFFFF" transform="translate(203,28)"/>
<path d="M0 0 C1.32 0 2.64 0 4 0 C3.67 1.65 3.34 3.3 3 5 C3.99 4.67 4.98 4.34 6 4 C5.67 4.99 5.34 5.98 5 7 C3.35 7 1.7 7 0 7 C0 4.69 0 2.38 0 0 Z " fill="#FFFFFF" transform="translate(121,28)"/>
<path d="M0 0 C1.32 0 2.64 0 4 0 C4 2.31 4 4.62 4 7 C2.68 7 1.36 7 0 7 C0 4.69 0 2.38 0 0 Z " fill="#FFFFFF" transform="translate(149,28)"/>
<path d="M0 0 C0.99 0 1.98 0 3 0 C3 2.31 3 4.62 3 7 C2.01 7 1.02 7 0 7 C0 4.69 0 2.38 0 0 Z " fill="#FFFFFF" transform="translate(108,28)"/>
<path d="M0 0 C0.99 0 1.98 0 3 0 C3 2.31 3 4.62 3 7 C2.01 7 1.02 7 0 7 C0 4.69 0 2.38 0 0 Z " fill="#FFFFFF" transform="translate(70,28)"/>
<path d="M0 0 C0.66 0 1.32 0 2 0 C2 2.64 2 5.28 2 8 C1.34 8 0.68 8 0 8 C0 5.36 0 2.72 0 0 Z " fill="#FFFFFF" transform="translate(133,28)"/>
<path d="M0 0 C0.66 0 1.32 0 2 0 C2 2.64 2 5.28 2 8 C1.34 8 0.68 8 0 8 C0 5.36 0 2.72 0 0 Z " fill="#FFFFFF" transform="translate(54,28)"/>
</svg>
